#!OML:ASF F:\VICON\USERDATA\INSTALL\rory3\rory3.ASF
:FULLY-SPECIFIED
:DEGREES
57
root -0.68936985612701 17.223953395061717 22.630200272432923 5.304332968550305 -0.799544469749883 -4.241602416126931
lfemur -29.051596308850197 3.8167541768742868 -13.226789456773767
ltibia 106.06803016817334
lfoot -0.48215500781583254 -4.2827742442873395
ltoes -2.070943079857676
rfemur -12.089627887876304 4.7550642808460335 36.32675433460848
rtibia 49.690574733183475
rfoot -23.743684801375952 -15.436287395650599
rtoes -7.070914741730261
lowerback 15.040186795093895 -0.27905765141212846 3.0497425313186834
upperback -0.561643834115019 0.2641161726224657 3.3307751867648756
thorax -7.781772093017534 0.10121558802136088 1.6179366954236194
lowerneck -18.351874906766753 -3.657577450614765 -2.869873427956699
upperneck 14.033495111292243 -4.3998605997273135 2.2141448240029136
head 7.903896334396745 -1.9533387118047159 0.8080621808673378
lclavicle -6.525054752630357e-16 -4.864010092498605e-15
lhumerus -55.977649987986766 -14.237716620471089 98.84394779990429
lradius 98.65579797005701
lwrist 26.250717903977307
lhand -31.106927038112758 0.47640416024461274
lfingers 7.125019999999998
lthumb -3.9661362945784613 30.373195628477298
rclavicle -6.547705688259561e-16 -4.866208036867884e-15
rhumerus -49.69316794035879 13.407009087410373 -100.10249369010326
rradius 125.79717740591254
rwrist -12.145427949581252
rhand -18.735760988853425 36.13459164297325
rfingers 7.125019999999998
rthumb 8.233729167656296 7.007867415316949
58
root -0.7116823399655505 17.37623248583085 23.670277505824174 5.782613017760025 -0.04543660039839237 -4.304243996873005
lfemur -32.868920088206224 3.6335762502163784 -13.468464157322305
ltibia 104.1431781214429
lfoot -2.25967493508981 -3.084218962372516
ltoes -4.437550596562948
rfemur -8.869582238756792 5.216807575251668 36.0923193208625
rtibia 47.75411963336029
rfoot -21.672300454805118 -13.622836737447031
rtoes -9.889119047541074
lowerback 13.998583756343177 -0.06425551790372175 3.345124597379187
upperback -0.7536666129720686 0.5592403129206371 3.0986003105881084
thorax -7.26703490858964 0.2015682998595384 1.299691985495126
lowerneck -18.21195871285205 -3.7761215358984983 -2.875297748685627
upperneck 14.384842857628973 -4.617912147331278 2.3573345170018594
head 7.983802934110709 -2.0415090011974275 0.8236298246502255
lclavicle -6.521558131677891e-16 -4.863749073089956e-15
lhumerus -58.178613973323664 -14.44385505337203 99.08760820641032
lradius 100.32953210524673
lwrist 27.05892198201957
lhand -30.737384556673646 0.97366328440373
lfingers 7.125019999999998
lthumb -3.7506341390340063 31.342223949253636
rclavicle -6.509193074961439e-16 -4.8634261524629564e-15
rhumerus -49.54699463791015 13.305971745928662 -99.9549835770107
rradius 125.58079977676941
rwrist -12.276068519171465
rhand -18.91513199148483 36.6862988314953
rfingers 7.125019999999998
rthumb 8.009814834136261 8.410782571248165
59
root -0.6992089602585939 17.582374264382253 24.309120185807878 6.861197823157805 0.3682702355325085 -4.509306497246685
lfemur -35.73906822912895 3.4173926631841964 -13.650710256151331
ltibia 100.0539072836674
lfoot -3.358207667213714 -3.0738460917956862
ltoes -8.639904931769772
rfemur -6.295325678994585 6.169404643179092 36.00505489469587
rtibia 45.700835819904285
rfoot -17.426888297345137 -11.056096306924076
rtoes -14.316787914262937
lowerback 12.29030634583053 0.26330257945371394 4.0147836187705686
upperback -1.241172979659866 0.9997228393067256 2.7716256444106415
thorax -6.682724898463107 0.3700855936171632 0.7269742584872745
lowerneck -18.627605779169826 -4.010913231892232 -3.1031248976938963
upperneck 15.383771878209712 -4.95325834122779 2.9705701150211423
head 8.297520908108316 -2.1563433378341172 1.0566075327810969
lclavicle -6.484408817011449e-16 -4.861165634373187e-15
lhumerus -60.22453782637486 -14.278230773846804 98.95904458301477
lradius 101.72317208255107
lwrist 26.607769564814213
lhand -29.500055811510055 0.02855145325073072
lfingers 7.125019999999998
lthumb -2.0980696723662553 30.427153100299982
rclavicle -6.564532020437712e-16 -4.8672554970148085e-15
rhumerus -49.44935370272725 13.301886906729422 -99.91430586214037
rradius 125.30237828414523
rwrist -11.677250079830898
rhand -18.95967456629732 36.61967882042656
rfingers 7.125019999999998
rthumb 7.646293634112774 10.822121664382433
60
root -0.7068184745255917 17.82910529759797 25.31403697401194 5.593287261319474 0.3010219483483082 -4.141575488781772
lfemur -36.806076607206805 3.2581370740631104 -14.708284400679704
ltibia 94.3033012907047
lfoot -3.435761026911298 -4.349326483695805
ltoes -11.759266233227462
rfemur -2.4517243374354614 6.317383214732108 35.547873723491044
rtibia 42.968793869167534
rfoot -11.348810965309859 -8.128876581140629
rtoes -15.811071588187493
lowerback 12.959265425693259 0.5193686739183327 3.893007310394709
upperback -1.0535147638227744 1.3637959155520174 2.3642582637907483
thorax -7.089539514133925 0.5013042913741804 0.3083436145604798
lowerneck -17.966594758556766 -3.7998262067464936 -3.100653334772631
upperneck 15.924173522962706 -4.63378019930983 2.962955464188735
head 8.37175359430726 -2.0154204754599343 1.12639608832224
lclavicle -6.444823655631558e-16 -4.8583775432572e-15
lhumerus -62.44489181259155 -13.461140578902116 98.4747953668664
lradius 102.82384735978194
lwrist 26.519698801915183
lhand -28.52734491688452 0.6095460964555031
lfingers 7.125019999999998
lthumb -1.6347034049908067 30.8084825191852
rclavicle -6.497426581019088e-16 -4.862641302790722e-15
rhumerus -49.41624932420477 13.364583470660465 -99.93919666901944
rradius 125.1235657807943
rwrist -11.436796251321685
rhand -18.59138637162852 36.57841706752364
rfingers 7.125019999999998
rthumb 7.131468843519068 9.326666118670216
61
root -0.7039799318735783 18.05917958449586 26.860058681533324 5.4215863561620585 1.2674523406993383 -3.338052638724532
lfemur -37.187755844680794 2.0951001157997107 -16.380343587883374
ltibia 87.23074381180473
lfoot -4.226190665419297 -5.457557377869647
ltoes -12.568029985281862
rfemur 0.3181631463233252 5.981278861784704 34.30150655594201
rtibia 39.43417271488528
rfoot -3.5979061960213 -5.356550708167264
rtoes -12.374920894733114
lowerback 12.020358975936 0.6197412439445511 3.606047852679403
upperback -1.4001417300571617 1.4732748868577485 1.8227331916780047
thorax -7.218825018174396 0.5587908155535078 -0.03736953996129544
lowerneck -17.627181685330548 -3.742316014810805 -3.1024728974796867
upperneck 16.795023922069273 -4.4995469928241985 2.746308137110061
head 8.481873141487885 -1.9708403013114992 1.0596739328332871
lclavicle -6.46128789182249e-16 -4.859541037352405e-15
lhumerus -64.36617489385665 -12.186024644648365 97.84048492789734
lradius 103.70902160883278
lwrist 26.622715041465344
lhand -29.27440962912494 0.6354619077517445
lfingers 7.125019999999998
lthumb -2.000018013614912 30.48714221387033
rclavicle -6.508051304384972e-16 -4.863449176646542e-15
rhumerus -49.408511112702165 13.554816512385957 -99.82163977448005
rradius 124.96170986454213
rwrist -11.669188169996046
rhand -18.616782162143345 35.79749667120874
rfingers 7.125019999999998
rthumb 7.394329188662057 8.761606464947034
62
root -0.730429273518549 18.22676760859975 28.170325787582627 4.916231229253213 2.664155456002532 -3.292190633142178
lfemur -36.57823702793621 0.6419631581294465 -16.92282836133942
ltibia 79.59066223809654
lfoot -3.9829068913775445 -6.496346752406545
ltoes -16.784923174316894
rfemur 3.408214500466361 5.7837226001425925 34.15188722608519
rtibia 35.12725006036548
rfoot 5.8177412432194675 -3.7201980591765493
rtoes -5.635250810283173
lowerback 11.800913521180425 0.5966509040956595 3.956697187381013
upperback -1.6482677753408013 1.463231345869415 1.547868847899761
thorax -7.403958661213803 0.5449315215746545 -0.4650259362385304
lowerneck -17.23531445227966 -3.743954095345804 -3.1462534713924866
upperneck 17.78502164193159 -4.451248485500544 2.45394011612723
head 8.716937025137344 -1.9899307193563582 0.9118996724812196
lclavicle -6.462837083092497e-16 -4.859634710535384e-15
lhumerus -65.76937982958533 -10.862116163075429 97.05025390478689
lradius 104.5003512390939
lwrist 27.880545532100285
lhand -30.173339225292306 0.700253254300142
lfingers 7.125019999999998
lthumb -2.913171523506647 30.4593476679453
rclavicle -6.492169469758354e-16 -4.862244417344603e-15
rhumerus -49.30326491515801 13.680872947849949 -99.58919666890446
rradius 124.40571943091963
rwrist -12.1551841009833
rhand -18.3384628458652 35.10131959006517
rfingers 7.125019999999998
rthumb 7.981869178990914 8.729866314278478
